<svg width="842" height="294" xmlns="http://www.w3.org/2000/svg" xmlns:xlink="http://www.w3.org/1999/xlink" overflow="hidden"><defs><clipPath id="clip0"><rect x="76" y="250" width="842" height="294"/></clipPath><clipPath id="clip1"><rect x="76" y="251" width="841" height="293"/></clipPath><clipPath id="clip2"><rect x="76" y="251" width="841" height="293"/></clipPath><clipPath id="clip3"><rect x="191" y="329" width="726" height="110"/></clipPath><clipPath id="clip4"><rect x="191" y="329" width="726" height="110"/></clipPath></defs><g clip-path="url(#clip0)" transform="translate(-76 -250)"><g clip-path="url(#clip1)"><g clip-path="url(#clip2)"><path d="M299.408 387.971 299.408 388.221C299.408 413.739 319.045 433.753 345.563 433.753 363.45 433.753 374.956 426.248 382.712 415.491L364.45 401.355C359.445 407.608 353.692 411.611 345.311 411.611 333.054 411.611 324.423 401.23 324.423 388.472L324.423 388.221C324.423 375.089 333.054 364.831 345.311 364.831 354.444 364.831 359.822 369.084 365.075 375.463L383.337 362.456C375.083 351.072 363.95 342.692 344.561 342.692 319.547 342.692 299.408 361.83 299.408 387.971" fill="#655B5F" transform="matrix(1 0 0 -1.0005 -103.144 775.503)"/><path d="M457.743 387.971 457.743 388.221C457.743 400.853 448.612 411.861 435.23 411.861 421.969 411.861 413.088 401.105 413.088 388.472L413.088 388.221C413.088 375.586 422.217 364.583 435.478 364.583 448.86 364.583 457.743 375.338 457.743 387.971M388.196 387.971 388.196 388.221C388.196 413.366 408.458 433.753 435.478 433.753 462.494 433.753 482.508 413.614 482.508 388.472L482.508 388.221C482.508 363.081 462.244 342.692 435.23 342.692 408.21 342.692 388.196 362.829 388.196 387.971" fill="#655B5F" transform="matrix(1 0 0 -1.0005 -103.144 775.503)"/><path d="M495.123 432.001 517.758 432.001 553.786 385.723 553.786 432.001 577.797 432.001 577.797 344.443 556.537 344.443 519.138 392.474 519.138 344.443 495.123 344.443 495.123 432.001" fill="#655B5F" transform="matrix(1 0 0 -1.0005 -103.144 775.503)"/><path d="M635.695 363.956C643.077 363.956 647.328 366.834 647.328 371.96L647.328 372.212C647.328 376.965 643.572 380.091 635.445 380.091L616.936 380.091 616.936 363.956ZM632.189 397.102C639.571 397.102 643.702 399.603 643.702 404.733L643.702 404.983C643.702 409.738 639.951 412.488 632.694 412.488L616.936 412.488 616.936 397.102ZM593.29 432.001 638.195 432.001C649.203 432.001 656.96 429.25 662.091 424.122 665.587 420.619 667.717 415.989 667.717 409.986L667.717 409.738C667.717 399.603 661.966 393.601 654.209 390.224 664.841 386.721 671.593 380.716 671.593 368.834L671.593 368.586C671.593 353.575 659.335 344.443 638.445 344.443L593.29 344.443 593.29 432.001" fill="#655B5F" transform="matrix(1 0 0 -1.0005 -103.144 775.503)"/><path d="M683.211 432.001 707.601 432.001 707.601 344.442 683.211 344.442 683.211 432.001" fill="#655B5F" transform="matrix(1 0 0 -1.0005 -103.144 775.503)"/><path d="M723.605 432.001 747.87 432.001 747.87 365.708 790.27 365.708 790.27 344.443 723.605 344.443 723.605 432.001" fill="#655B5F" transform="matrix(1 0 0 -1.0005 -103.144 775.503)"/><path d="M801.143 432.001 825.533 432.001 825.533 344.442 801.143 344.442 801.143 432.001" fill="#655B5F" transform="matrix(1 0 0 -1.0005 -103.144 775.503)"/><path d="M862.922 410.738 836.656 410.738 836.656 431.999 913.453 431.999 913.453 410.738 887.187 410.738 887.187 344.442 862.922 344.442 862.922 410.738" fill="#655B5F" transform="matrix(1 0 0 -1.0005 -103.144 775.503)"/><path d="M949.336 377.215 916.064 432.001 943.705 432.001 961.724 400.105 979.858 432.001 1006.99 432.001 973.727 377.59 973.727 344.442 949.336 344.442 949.336 377.215" fill="#655B5F" transform="matrix(1 0 0 -1.0005 -103.144 775.503)"/><path d="M250.344 406.937 292.536 431.294 292.536 480.012 250.344 504.37 250.344 480.564 271.921 468.111 271.921 443.196 250.344 430.739 250.344 406.937" fill="#F89C0E" transform="matrix(1 0 0 -1.0005 -103.144 775.503)"/><path d="M250.344 430.739 228.769 443.195 228.769 468.109 250.344 480.569 250.344 504.37 208.18 480.025 208.18 431.28 250.344 406.935 250.344 430.739" fill="#FDDC33" transform="matrix(1 0 0 -1.0005 -103.144 775.503)"/><path d="M228.769 468.111 194.577 487.896 221.812 487.896Z" fill="#FDDC33" transform="matrix(1 0 0 -1.0005 -103.144 775.503)"/><path d="M228.769 468.111 194.577 487.896 208.178 464.309Z" fill="#F89C0E" transform="matrix(1 0 0 -1.0005 -103.144 775.503)"/><path d="M1001.11 357.349C1001.11 356.234 1000.33 355.456 998.878 355.456L996.002 355.456 996.002 359.279 998.808 359.279C1000.23 359.279 1001.11 358.638 1001.11 357.349M1004.02 357.521C1004.02 360.229 1002.03 361.819 998.913 361.819L993.121 361.819 993.121 348.786 996.002 348.786 996.002 352.985 998.267 352.985 1001.04 348.786 1004.39 348.786 1001.21 353.458C1002.87 354.067 1004.02 355.387 1004.02 357.521M1009 354.981C1009 348.955 1004.33 344.045 998.133 344.045 991.971 344.045 987.335 348.886 987.335 354.915 987.335 360.94 992.001 365.849 998.202 365.849 1004.36 365.849 1009 361.008 1009 354.981M1010.42 354.981C1010.42 361.686 1005.07 367.203 998.202 367.203 991.326 367.203 985.91 361.617 985.91 354.915 985.91 348.21 991.261 342.693 998.133 342.693 1005 342.693 1010.42 348.278 1010.42 354.981" fill="#655B5F" transform="matrix(1 0 0 -1.0005 -103.144 775.503)"/><path d="M327.401 283.301C326.16 281.375 324.199 280.411 321.517 280.411 320.297 280.411 319.147 280.615 318.07 281.023 316.994 281.428 316.131 281.867 315.48 282.338L315.48 301.528C316.211 301.741 316.953 301.881 317.705 301.946 318.458 302.008 319.178 302.041 319.87 302.041 323.164 302.041 325.549 301.079 327.034 299.154 328.518 297.228 329.259 294.532 329.259 291.066 329.259 287.814 328.639 285.225 327.401 283.301ZM335.691 298.478C334.94 300.639 333.863 302.479 332.461 303.999 331.058 305.517 329.36 306.683 327.37 307.496 325.377 308.309 323.123 308.717 320.603 308.717 318.163 308.717 315.845 308.523 313.651 308.139 311.456 307.754 309.606 307.346 308.103 306.919L308.103 262.57 315.48 262.57 315.48 275.598C316.293 275.127 317.33 274.703 318.59 274.319 319.848 273.931 321.231 273.738 322.736 273.738 324.971 273.738 326.973 274.168 328.741 275.024 330.509 275.877 331.982 277.073 333.162 278.614 334.34 280.156 335.244 281.994 335.876 284.135 336.504 286.274 336.819 288.628 336.819 291.195 336.819 293.891 336.444 296.318 335.691 298.478ZM363.889 307.56C363.524 307.689 363.038 307.828 362.427 307.978 361.817 308.127 361.188 308.256 360.537 308.363 359.887 308.469 359.236 308.555 358.586 308.619 357.935 308.684 357.366 308.717 356.878 308.717 354.278 308.717 351.91 308.469 349.775 307.978 347.642 307.486 345.864 306.96 344.442 306.406L344.442 274.444 351.819 274.444 351.819 301.334C352.184 301.463 352.824 301.614 353.739 301.784 354.653 301.955 355.517 302.041 356.331 302.041 357.754 302.041 359.002 301.922 360.08 301.688 361.156 301.454 362 301.227 362.61 301.014ZM396.723 298.478C395.971 300.639 394.926 302.491 393.584 304.03 392.242 305.572 390.626 306.759 388.737 307.594 386.846 308.428 384.783 308.844 382.548 308.844 380.311 308.844 378.258 308.428 376.39 307.594 374.519 306.759 372.903 305.572 371.544 304.03 370.18 302.491 369.123 300.639 368.371 298.478 367.619 296.318 367.244 293.911 367.244 291.26 367.244 288.605 367.619 286.188 368.371 284.006 369.123 281.824 370.17 279.964 371.512 278.423 372.852 276.884 374.458 275.682 376.328 274.828 378.198 273.972 380.27 273.547 382.548 273.547 384.824 273.547 386.907 273.972 388.798 274.828 390.687 275.682 392.302 276.884 393.644 278.423 394.987 279.964 396.022 281.824 396.754 284.006 397.485 286.188 397.852 288.605 397.852 291.26 397.852 293.911 397.476 296.318 396.723 298.478ZM388.248 283.237C386.887 281.267 384.986 280.284 382.548 280.284 380.108 280.284 378.207 281.267 376.847 283.237 375.484 285.203 374.804 287.878 374.804 291.26 374.804 294.597 375.484 297.238 376.847 299.185 378.207 301.131 380.108 302.106 382.548 302.106 384.986 302.106 386.887 301.131 388.248 299.185 389.61 297.238 390.29 294.597 390.29 291.26 390.29 287.878 389.61 285.203 388.248 283.237ZM413.124 299.154C414.364 301.079 416.325 302.041 419.007 302.041 420.227 302.041 421.376 301.838 422.454 301.432 423.528 301.024 424.394 300.586 425.044 300.115L425.044 280.861C424.515 280.734 423.835 280.615 423.001 280.509 422.169 280.402 421.162 280.349 419.982 280.349 417.259 280.349 415.126 281.322 413.581 283.268 412.037 285.216 411.266 287.9 411.266 291.322 411.266 294.618 411.883 297.228 413.124 299.154ZM432.421 324.248 425.044 322.964 425.044 306.855C424.191 307.326 423.174 307.754 421.995 308.139 420.816 308.523 419.455 308.717 417.91 308.717 415.634 308.717 413.622 308.299 411.875 307.465 410.126 306.63 408.642 305.443 407.423 303.903 406.204 302.362 405.278 300.512 404.649 298.351 404.018 296.19 403.703 293.784 403.703 291.131 403.703 288.435 404.081 286.007 404.832 283.846 405.584 281.685 406.661 279.845 408.063 278.329 409.466 276.807 411.162 275.643 413.155 274.828 415.146 274.017 417.402 273.607 419.922 273.607 422.362 273.607 424.689 273.802 426.904 274.187 429.119 274.573 430.958 274.998 432.421 275.473ZM467.968 308.01 460.589 308.01 460.589 280.861C460.101 280.734 459.361 280.626 458.364 280.54 457.368 280.454 456.423 280.411 455.53 280.411 453.049 280.411 451.312 281.183 450.316 282.722 449.319 284.264 448.823 286.831 448.823 290.426L448.823 308.01 441.445 308.01 441.445 289.204C441.445 286.936 441.667 284.85 442.114 282.947 442.562 281.043 443.304 279.409 444.341 278.038 445.377 276.669 446.758 275.598 448.487 274.828 450.214 274.056 452.359 273.672 454.92 273.672 457.641 273.672 460.142 273.877 462.42 274.283 464.694 274.688 466.544 275.088 467.968 275.473ZM476.564 284.166C477.214 282.006 478.199 280.144 479.521 278.583 480.842 277.024 482.508 275.803 484.52 274.922 486.533 274.047 488.898 273.607 491.624 273.607 493.37 273.607 495.068 273.783 496.715 274.123 498.36 274.463 499.588 274.848 500.404 275.278L499.368 281.697C498.473 281.31 497.416 280.99 496.197 280.734 494.976 280.476 493.736 280.349 492.477 280.349 489.101 280.349 486.705 281.322 485.283 283.268 483.858 285.216 483.147 287.859 483.147 291.195 483.147 294.661 483.899 297.345 485.404 299.25 486.908 301.153 489.101 302.106 491.989 302.106 493.208 302.106 494.357 301.977 495.433 301.721 496.512 301.463 497.477 301.143 498.331 300.758L499.915 307.111C497.232 308.268 494.388 308.844 491.379 308.844 488.939 308.844 486.746 308.394 484.794 307.496 482.845 306.597 481.186 305.357 479.826 303.774 478.463 302.19 477.417 300.318 476.685 298.158 475.954 295.997 475.589 293.676 475.589 291.195 475.589 288.669 475.913 286.327 476.564 284.166ZM513.572 308.01 506.195 308.01 506.195 274.444 513.572 274.444ZM513.022 321.358C512.127 322.214 511.071 322.644 509.851 322.644 508.591 322.644 507.516 322.214 506.62 321.358 505.725 320.503 505.28 319.327 505.28 317.83 505.28 316.375 505.725 315.22 506.62 314.365 507.516 313.507 508.591 313.081 509.851 313.081 511.071 313.081 512.127 313.507 513.022 314.365 513.917 315.22 514.362 316.375 514.362 317.83 514.362 319.327 513.917 320.503 513.022 321.358ZM522.959 274.444 530.336 274.444 530.336 301.528C530.826 301.614 531.576 301.721 532.596 301.848 533.612 301.977 534.587 302.041 535.522 302.041 536.782 302.041 537.848 301.86 538.723 301.496 539.593 301.131 540.288 300.555 540.793 299.764 541.303 298.971 541.668 297.945 541.893 296.683 542.114 295.419 542.229 293.891 542.229 292.094L542.229 274.444 549.605 274.444 549.605 293.313C549.605 295.579 549.39 297.665 548.965 299.57 548.54 301.473 547.805 303.101 546.77 304.448 545.734 305.796 544.339 306.843 542.594 307.594 540.843 308.342 538.668 308.717 536.067 308.717 533.307 308.717 530.786 308.523 528.51 308.139 526.23 307.754 524.385 307.346 522.959 306.919ZM566.554 299.441C567.974 301.303 570.03 302.235 572.711 302.235 573.891 302.235 574.866 302.18 575.641 302.073 576.411 301.965 577.061 301.848 577.592 301.721L577.592 284.326C576.941 283.856 576.096 283.45 575.061 283.108 574.021 282.765 572.916 282.594 571.735 282.594 569.58 282.594 567.824 283.354 566.464 284.873 565.099 286.391 564.419 288.798 564.419 292.094 564.419 295.132 565.129 297.581 566.554 299.441ZM584.968 306.919C583.463 307.346 581.633 307.754 579.482 308.139 577.327 308.523 575.051 308.717 572.651 308.717 570.17 308.717 567.954 308.309 566.004 307.496 564.054 306.683 562.398 305.55 561.038 304.095 559.673 302.639 558.637 300.887 557.927 298.832 557.217 296.779 556.862 294.532 556.862 292.094 556.862 289.484 557.197 287.182 557.867 285.194 558.537 283.205 559.472 281.547 560.673 280.22 561.868 278.894 563.313 277.887 564.999 277.204 566.684 276.518 568.545 276.178 570.58 276.178 572.12 276.178 573.496 276.367 574.696 276.753 575.891 277.137 576.856 277.524 577.592 277.909L577.592 276.628C577.592 274.103 576.961 272.197 575.701 270.911 574.441 269.632 572.325 268.987 569.36 268.987 567.489 268.987 565.749 269.161 564.144 269.501 562.538 269.846 561.108 270.296 559.848 270.853L558.507 264.24C560.008 263.685 561.688 263.236 563.538 262.89 565.384 262.55 567.284 262.38 569.235 262.38 574.561 262.38 578.512 263.621 581.097 266.102 583.678 268.581 584.968 272.498 584.968 277.843ZM611.334 280.669C609.814 281.097 608.504 281.547 607.403 282.017L606.123 275.533C606.813 275.233 608.014 274.838 609.719 274.348 611.429 273.857 613.685 273.607 616.49 273.607 620.676 273.607 623.897 274.432 626.153 276.078 628.408 277.729 629.538 280.156 629.538 283.366 629.538 284.862 629.353 286.145 628.988 287.216 628.623 288.285 628.043 289.238 627.248 290.072 626.458 290.906 625.453 291.654 624.232 292.319 623.012 292.981 621.527 293.655 619.781 294.341 618.721 294.725 617.831 295.099 617.101 295.464 616.365 295.825 615.775 296.19 615.33 296.554 614.88 296.917 614.57 297.312 614.385 297.742 614.2 298.167 614.11 298.66 614.11 299.217 614.11 300.33 614.575 301.153 615.515 301.688 616.445 302.223 617.666 302.491 619.171 302.491 620.836 302.491 622.302 302.33 623.562 302.008 624.822 301.688 625.858 301.334 626.673 300.95L628.013 307.24C627.158 307.582 625.878 307.935 624.172 308.299 622.462 308.662 620.676 308.844 618.806 308.844 615.105 308.844 612.18 307.955 610.024 306.181 607.868 304.405 606.793 301.977 606.793 298.896 606.793 297.312 607.028 295.975 607.493 294.886 607.964 293.793 608.604 292.864 609.414 292.094 610.229 291.322 611.194 290.65 612.31 290.072 613.43 289.493 614.66 288.949 616 288.435 618.196 287.579 619.771 286.788 620.726 286.059 621.682 285.333 622.157 284.412 622.157 283.301 622.157 282.101 621.712 281.258 620.816 280.765 619.921 280.273 618.501 280.027 616.55 280.027 614.6 280.027 612.86 280.241 611.334 280.669ZM662.581 308.01 655.204 308.01 655.204 280.861C654.714 280.734 653.974 280.626 652.979 280.54 651.984 280.454 651.038 280.411 650.143 280.411 647.663 280.411 645.927 281.183 644.932 282.722 643.932 284.264 643.437 286.831 643.437 290.426L643.437 308.01 636.06 308.01 636.06 289.204C636.06 286.936 636.28 284.85 636.73 282.947 637.175 281.043 637.92 279.409 638.956 278.038 639.991 276.669 641.371 275.598 643.102 274.828 644.827 274.056 646.972 273.672 649.533 273.672 652.259 273.672 654.754 273.877 657.035 274.283 659.31 274.688 661.161 275.088 662.581 275.473ZM674.744 280.669C673.218 281.097 671.908 281.547 670.813 282.017L669.533 275.533C670.223 275.233 671.423 274.838 673.128 274.348 674.834 273.857 677.094 273.607 679.895 273.607 684.081 273.607 687.307 274.432 689.562 276.078 691.818 277.729 692.943 280.156 692.943 283.366 692.943 284.862 692.763 286.145 692.398 287.216 692.028 288.285 691.453 289.238 690.657 290.072 689.867 290.906 688.862 291.654 687.642 292.319 686.421 292.981 684.936 293.655 683.191 294.341 682.13 294.725 681.24 295.099 680.505 295.464 679.775 295.825 679.185 296.19 678.74 296.554 678.29 296.917 677.974 297.312 677.794 297.742 677.609 298.167 677.519 298.66 677.519 299.217 677.519 300.33 677.984 301.153 678.92 301.688 679.855 302.223 681.075 302.491 682.581 302.491 684.246 302.491 685.711 302.33 686.972 302.008 688.227 301.688 689.267 301.334 690.077 300.95L691.423 307.24C690.567 307.582 689.287 307.935 687.582 308.299 685.871 308.662 684.081 308.844 682.215 308.844 678.515 308.844 675.589 307.955 673.433 306.181 671.278 304.405 670.203 301.977 670.203 298.896 670.203 297.312 670.438 295.975 670.903 294.886 671.368 293.793 672.013 292.864 672.823 292.094 673.638 291.322 674.604 290.65 675.719 290.072 676.839 289.493 678.07 288.949 679.41 288.435 681.605 287.579 683.181 286.788 684.136 286.059 685.091 285.333 685.566 284.412 685.566 283.301 685.566 282.101 685.121 281.258 684.226 280.765 683.331 280.273 681.91 280.027 679.96 280.027 678.004 280.027 676.269 280.241 674.744 280.669ZM699.469 287.794C699.469 285.569 699.649 283.59 700.015 281.857 700.385 280.124 701.01 278.65 701.905 277.428 702.8 276.207 704.01 275.278 705.536 274.637 707.056 273.992 708.957 273.672 711.237 273.672 713.102 273.672 714.728 273.877 716.113 274.283 717.494 274.688 718.614 275.088 719.464 275.473L718.249 281.633C717.638 281.375 716.813 281.097 715.778 280.798 714.743 280.497 713.553 280.349 712.212 280.349 710.262 280.349 708.877 280.926 708.066 282.082 707.251 283.237 706.846 285.162 706.846 287.859L706.846 301.528 718.184 301.528 718.184 308.01 706.846 308.01 706.846 318.151 699.469 316.867ZM732.087 280.959C730.992 281.664 730.441 282.935 730.441 284.778 730.441 285.718 730.641 286.499 731.052 287.12 731.457 287.74 731.997 288.22 732.667 288.564 733.337 288.906 734.087 289.14 734.922 289.269 735.753 289.398 736.578 289.462 737.393 289.462 738.328 289.462 739.178 289.398 739.954 289.269 740.724 289.14 741.314 289.013 741.719 288.884L741.719 280.284C740.539 280.027 738.813 279.9 736.538 279.9 734.667 279.9 733.182 280.251 732.087 280.959ZM730.196 308.33C728.406 307.988 727.046 307.646 726.11 307.305L727.026 301.014C727.921 301.356 729.076 301.657 730.501 301.913 731.922 302.168 733.487 302.297 735.198 302.297 736.458 302.297 737.503 302.125 738.338 301.784 739.168 301.442 739.839 300.959 740.349 300.34 740.854 299.721 741.214 299.002 741.414 298.191 741.619 297.376 741.719 296.521 741.719 295.624L741.719 294.341C740.704 294.597 739.749 294.778 738.853 294.886 737.958 294.991 737.108 295.046 736.293 295.046 734.547 295.046 732.867 294.864 731.262 294.501 729.656 294.136 728.246 293.537 727.026 292.703 725.805 291.869 724.84 290.787 724.13 289.462 723.42 288.136 723.065 286.511 723.065 284.584 723.065 282.572 723.38 280.883 724.01 279.513 724.64 278.143 725.51 277.034 726.631 276.178 727.746 275.319 729.101 274.703 730.687 274.319 732.272 273.931 734.017 273.738 735.928 273.738 738.813 273.738 741.404 273.922 743.7 274.283 746 274.649 747.715 274.957 748.856 275.213L748.856 295.559C748.856 297.527 748.641 299.334 748.215 300.983 747.785 302.629 747.075 304.03 746.08 305.187 745.085 306.341 743.755 307.24 742.084 307.883 740.419 308.523 738.368 308.844 735.928 308.844 733.897 308.844 731.987 308.674 730.196 308.33ZM765.314 308.01 757.938 308.01 757.938 274.444 765.314 274.444ZM764.769 321.358C763.874 322.214 762.814 322.644 761.599 322.644 760.338 322.644 759.258 322.214 758.363 321.358 757.473 320.503 757.022 319.327 757.022 317.83 757.022 316.375 757.473 315.22 758.363 314.365 759.258 313.507 760.338 313.081 761.599 313.081 762.814 313.081 763.874 313.507 764.769 314.365 765.659 315.22 766.11 316.375 766.11 317.83 766.11 319.327 765.659 320.503 764.769 321.358ZM774.707 274.444 782.083 274.444 782.083 301.528C782.568 301.614 783.324 301.721 784.339 301.848 785.354 301.977 786.329 302.041 787.264 302.041 788.525 302.041 789.59 301.86 790.465 301.496 791.34 301.131 792.03 300.555 792.541 299.764 793.046 298.971 793.411 297.945 793.636 296.683 793.861 295.419 793.971 293.891 793.971 292.094L793.971 274.444 801.348 274.444 801.348 293.313C801.348 295.579 801.138 297.665 800.707 299.57 800.282 301.473 799.552 303.101 798.512 304.448 797.477 305.796 796.086 306.843 794.336 307.594 792.591 308.342 790.415 308.717 787.815 308.717 785.049 308.717 782.528 308.523 780.253 308.139 777.977 307.754 776.127 307.346 774.707 306.919ZM817.141 280.959C816.041 281.664 815.496 282.935 815.496 284.778 815.496 285.718 815.696 286.499 816.101 287.12 816.511 287.74 817.046 288.22 817.721 288.564 818.391 288.906 819.142 289.14 819.977 289.269 820.807 289.398 821.632 289.462 822.442 289.462 823.378 289.462 824.233 289.398 825.003 289.269 825.778 289.14 826.368 289.013 826.773 288.884L826.773 280.284C825.593 280.027 823.868 279.9 821.592 279.9 819.722 279.9 818.236 280.251 817.141 280.959ZM815.251 308.33C813.46 307.988 812.1 307.646 811.165 307.305L812.08 301.014C812.975 301.356 814.131 301.657 815.556 301.913 816.976 302.168 818.542 302.297 820.247 302.297 821.507 302.297 822.557 302.125 823.388 301.784 824.223 301.442 824.893 300.959 825.403 300.34 825.908 299.721 826.263 299.002 826.468 298.191 826.673 297.376 826.773 296.521 826.773 295.624L826.773 294.341C825.758 294.597 824.803 294.778 823.908 294.886 823.013 294.991 822.157 295.046 821.347 295.046 819.597 295.046 817.921 294.864 816.316 294.501 814.711 294.136 813.3 293.537 812.08 292.703 810.86 291.869 809.895 290.787 809.184 289.462 808.469 288.136 808.114 286.511 808.114 284.584 808.114 282.572 808.429 280.883 809.059 279.513 809.69 278.143 810.565 277.034 811.685 276.178 812.8 275.319 814.151 274.703 815.736 274.319 817.321 273.931 819.072 273.738 820.982 273.738 823.868 273.738 826.458 273.922 828.754 274.283 831.049 274.649 832.77 274.957 833.905 275.213L833.905 295.559C833.905 297.527 833.695 299.334 833.265 300.983 832.84 302.629 832.13 304.03 831.134 305.187 830.134 306.341 828.804 307.24 827.138 307.883 825.473 308.523 823.418 308.844 820.982 308.844 818.947 308.844 817.036 308.674 815.251 308.33ZM861.771 283.268C860.226 281.322 858.091 280.349 855.37 280.349 854.19 280.349 853.184 280.402 852.349 280.509 851.519 280.615 850.834 280.734 850.309 280.861L850.309 300.18C850.959 300.651 851.824 301.079 852.899 301.463 853.975 301.848 855.125 302.041 856.345 302.041 859.026 302.041 860.986 301.079 862.227 299.154 863.467 297.228 864.087 294.618 864.087 291.322 864.087 287.9 863.317 285.216 861.771 283.268ZM870.703 298.351C870.073 300.512 869.168 302.362 867.988 303.903 866.812 305.443 865.337 306.63 863.567 307.465 861.801 308.299 859.796 308.717 857.565 308.717 856.06 308.717 854.69 308.523 853.449 308.139 852.209 307.754 851.159 307.326 850.309 306.855L850.309 324.248 842.932 322.964 842.932 275.473C844.392 274.998 846.233 274.573 848.448 274.187 850.664 273.802 852.989 273.607 855.43 273.607 857.951 273.607 860.206 274.017 862.196 274.828 864.187 275.643 865.887 276.819 867.288 278.358 868.693 279.9 869.768 281.75 870.518 283.91 871.274 286.071 871.649 288.499 871.649 291.195 871.649 293.803 871.334 296.19 870.703 298.351ZM886.707 308.01 879.33 308.01 879.33 274.444 886.707 274.444ZM886.157 321.358C885.262 322.214 884.206 322.644 882.986 322.644 881.726 322.644 880.651 322.214 879.755 321.358 878.86 320.503 878.415 319.327 878.415 317.83 878.415 316.375 878.86 315.22 879.755 314.365 880.651 313.507 881.726 313.081 882.986 313.081 884.206 313.081 885.262 313.507 886.157 314.365 887.052 315.22 887.497 316.375 887.497 317.83 887.497 319.327 887.052 320.503 886.157 321.358ZM908.227 280.22C907.252 280.349 906.452 280.531 905.821 280.765 905.191 281 904.691 281.344 904.326 281.793 903.961 282.242 903.706 282.787 903.566 283.43 903.421 284.071 903.351 284.862 903.351 285.804L903.351 324.248 895.974 322.964 895.974 284.326C895.974 282.658 896.144 281.172 896.494 279.866 896.839 278.563 897.44 277.468 898.29 276.593 899.145 275.717 900.29 275.043 901.736 274.573 903.176 274.103 904.996 273.847 907.192 273.802ZM921.64 308.01 914.263 308.01 914.263 274.444 921.64 274.444ZM921.095 321.358C920.2 322.214 919.144 322.644 917.924 322.644 916.664 322.644 915.584 322.214 914.693 321.358 913.798 320.503 913.348 319.327 913.348 317.83 913.348 316.375 913.798 315.22 914.693 314.365 915.584 313.507 916.664 313.081 917.924 313.081 919.144 313.081 920.2 313.507 921.095 314.365 921.985 315.22 922.435 316.375 922.435 317.83 922.435 319.327 921.985 320.503 921.095 321.358ZM930.667 287.794C930.667 285.569 930.847 283.59 931.212 281.857 931.577 280.124 932.207 278.65 933.103 277.428 933.998 276.207 935.208 275.278 936.733 274.637 938.254 273.992 940.154 273.672 942.435 273.672 944.3 273.672 945.926 273.877 947.311 274.283 948.691 274.688 949.811 275.088 950.662 275.473L949.446 281.633C948.836 281.375 948.011 281.097 946.976 280.798 945.941 280.497 944.75 280.349 943.41 280.349 941.46 280.349 940.074 280.926 939.264 282.082 938.449 283.237 938.044 285.162 938.044 287.859L938.044 301.528 949.381 301.528 949.381 308.01 938.044 308.01 938.044 318.151 930.667 316.867ZM974.932 308.01C973.997 303.987 972.967 299.826 971.836 295.526 970.701 291.226 969.486 287.173 968.191 283.366 967.415 285.203 966.64 287.194 965.865 289.333 965.09 291.473 964.355 293.621 963.665 295.784 962.969 297.945 962.329 300.072 961.734 302.168 961.144 304.265 960.644 306.212 960.234 308.01L952.372 308.01C954.042 301.762 955.953 295.858 958.093 290.297 960.239 284.733 962.474 279.599 964.8 274.893 963.985 272.883 963.034 271.398 961.954 270.431 960.869 269.471 959.369 268.987 957.453 268.987 956.023 268.987 954.573 269.286 953.102 269.885L951.762 263.66C952.332 263.365 953.177 263.085 954.292 262.825 955.413 262.57 956.543 262.441 957.683 262.441 959.389 262.441 960.894 262.646 962.199 263.05 963.5 263.461 964.68 264.111 965.74 265.009 966.795 265.906 967.751 267.041 968.606 268.411 969.461 269.782 970.296 271.427 971.111 273.353 975.452 283.707 979.263 295.259 982.549 308.01L974.932 308.01" fill="#F89C0E" transform="matrix(1 0 0 -1.0005 -103.144 775.503)"/></g></g><g clip-path="url(#clip3)"><g clip-path="url(#clip4)"><path d="M298.354 386.605 298.354 386.854C298.354 412.282 317.922 432.226 344.346 432.226 362.17 432.226 373.636 424.747 381.364 414.028L363.167 399.942C358.18 406.173 352.447 410.162 344.095 410.162 331.882 410.162 323.281 399.817 323.281 387.103L323.281 386.854C323.281 373.769 331.882 363.546 344.095 363.546 353.196 363.546 358.555 367.784 363.79 374.14L381.987 361.179C373.763 349.836 362.668 341.485 343.348 341.485 318.422 341.485 298.354 360.556 298.354 386.605" fill="#FFFFFF" transform="matrix(1.00347 0 0 -1 -103.08 773.589)"/><path d="M456.131 386.605 456.131 386.854C456.131 399.441 447.032 410.411 433.697 410.411 420.483 410.411 411.633 399.692 411.633 387.103L411.633 386.854C411.633 374.263 420.73 363.299 433.945 363.299 447.28 363.299 456.131 374.016 456.131 386.605M386.829 386.605 386.829 386.854C386.829 411.91 407.02 432.226 433.945 432.226 460.865 432.226 480.809 412.157 480.809 387.103L480.809 386.854C480.809 361.802 460.616 341.485 433.697 341.485 406.772 341.485 386.829 361.551 386.829 386.605" fill="#FFFFFF" transform="matrix(1.00347 0 0 -1 -103.08 773.589)"/><path d="M493.379 430.48 515.935 430.48 551.836 384.365 551.836 430.48 575.762 430.48 575.762 343.23 554.577 343.23 517.31 391.092 517.31 343.23 493.379 343.23 493.379 430.48" fill="#FFFFFF" transform="matrix(1.00347 0 0 -1 -103.08 773.589)"/><path d="M633.456 362.674C640.812 362.674 645.048 365.542 645.048 370.65L645.048 370.901C645.048 375.637 641.305 378.752 633.207 378.752L614.763 378.752 614.763 362.674ZM629.963 395.704C637.318 395.704 641.435 398.195 641.435 403.307L641.435 403.557C641.435 408.295 637.697 411.036 630.466 411.036L614.763 411.036 614.763 395.704ZM591.201 430.48 635.948 430.48C646.917 430.48 654.646 427.739 659.759 422.629 663.243 419.138 665.366 414.524 665.366 408.542L665.366 408.295C665.366 398.195 659.635 392.215 651.905 388.85 662.5 385.359 669.228 379.375 669.228 367.535L669.228 367.288C669.228 352.329 657.013 343.23 636.197 343.23L591.201 343.23 591.201 430.48" fill="#FFFFFF" transform="matrix(1.00347 0 0 -1 -103.08 773.589)"/><path d="M680.805 430.48 705.109 430.48 705.109 343.229 680.805 343.229 680.805 430.48" fill="#FFFFFF" transform="matrix(1.00347 0 0 -1 -103.08 773.589)"/><path d="M721.057 430.48 745.237 430.48 745.237 364.42 787.487 364.42 787.487 343.23 721.057 343.23 721.057 430.48" fill="#FFFFFF" transform="matrix(1.00347 0 0 -1 -103.08 773.589)"/><path d="M798.321 430.48 822.626 430.48 822.626 343.229 798.321 343.229 798.321 430.48" fill="#FFFFFF" transform="matrix(1.00347 0 0 -1 -103.08 773.589)"/><path d="M859.883 409.292 833.709 409.292 833.709 430.478 910.236 430.478 910.236 409.292 884.063 409.292 884.063 343.229 859.883 343.229 859.883 409.292" fill="#FFFFFF" transform="matrix(1.00347 0 0 -1 -103.08 773.589)"/><path d="M945.993 375.887 912.838 430.48 940.382 430.48 958.337 398.696 976.408 430.48 1003.45 430.48 970.298 376.26 970.298 343.229 945.993 343.229 945.993 375.887" fill="#FFFFFF" transform="matrix(1.00347 0 0 -1 -103.08 773.589)"/><path d="M249.462 405.504 291.505 429.775 291.505 478.321 249.462 502.594 249.462 478.872 270.964 466.462 270.964 441.636 249.462 429.222 249.462 405.504" fill="#FFFFFF" transform="matrix(1.00347 0 0 -1 -103.08 773.589)"/><path d="M249.462 429.222 227.964 441.634 227.964 466.46 249.462 478.876 249.462 502.594 207.447 478.335 207.447 429.761 249.462 405.502 249.462 429.222" fill="#FFFFFF" transform="matrix(1.00347 0 0 -1 -103.08 773.589)"/><path d="M227.964 466.462 193.892 486.178 221.031 486.178Z" fill="#FFFFFF" transform="matrix(1.00347 0 0 -1 -103.08 773.589)"/><path d="M227.964 466.462 193.892 486.178 207.445 462.674Z" fill="#FFFFFF" transform="matrix(1.00347 0 0 -1 -103.08 773.589)"/><path d="M997.583 356.09C997.583 354.979 996.81 354.204 995.36 354.204L992.494 354.204 992.494 358.014 995.29 358.014C996.711 358.014 997.583 357.375 997.583 356.09M1000.49 356.262C1000.49 358.96 998.5 360.545 995.395 360.545L989.624 360.545 989.624 347.558 992.494 347.558 992.494 351.742 994.752 351.742 997.518 347.558 1000.86 347.558 997.687 352.213C999.342 352.82 1000.49 354.136 1000.49 356.262M1005.45 353.731C1005.45 347.726 1000.79 342.834 994.617 342.834 988.478 342.834 983.858 347.657 983.858 353.665 983.858 359.669 988.508 364.56 994.687 364.56 1000.83 364.56 1005.45 359.737 1005.45 353.731M1006.86 353.731C1006.86 360.412 1001.53 365.91 994.687 365.91 987.835 365.91 982.438 360.344 982.438 353.665 982.438 346.984 987.77 341.486 994.617 341.486 1001.46 341.486 1006.86 347.052 1006.86 353.731" fill="#FFFFFF" transform="matrix(1.00347 0 0 -1 -103.08 773.589)"/><path d="M326.248 282.303C325.012 280.384 323.057 279.424 320.385 279.424 319.17 279.424 318.023 279.627 316.95 280.033 315.878 280.437 315.017 280.874 314.369 281.344L314.369 300.466C315.097 300.678 315.837 300.818 316.587 300.882 317.336 300.945 318.054 300.978 318.743 300.978 322.026 300.978 324.402 300.018 325.882 298.101 327.361 296.181 328.099 293.495 328.099 290.041 328.099 286.8 327.482 284.221 326.248 282.303ZM334.509 297.427C333.76 299.58 332.687 301.414 331.29 302.928 329.892 304.441 328.2 305.603 326.217 306.413 324.231 307.223 321.985 307.63 319.474 307.63 317.042 307.63 314.733 307.437 312.547 307.054 310.359 306.67 308.515 306.263 307.018 305.839L307.018 261.645 314.369 261.645 314.369 274.627C315.179 274.158 316.213 273.736 317.468 273.352 318.722 272.967 320.1 272.774 321.599 272.774 323.826 272.774 325.822 273.202 327.583 274.055 329.345 274.906 330.813 276.097 331.989 277.633 333.162 279.169 334.064 281.001 334.693 283.135 335.319 285.266 335.633 287.612 335.633 290.17 335.633 292.856 335.259 295.274 334.509 297.427ZM362.608 306.477C362.244 306.606 361.759 306.744 361.15 306.894 360.543 307.042 359.916 307.17 359.267 307.277 358.619 307.382 357.971 307.468 357.323 307.533 356.675 307.597 356.108 307.63 355.622 307.63 353.031 307.63 350.671 307.382 348.543 306.894 346.417 306.403 344.646 305.879 343.229 305.327L343.229 273.477 350.58 273.477 350.58 300.273C350.943 300.402 351.582 300.552 352.493 300.721 353.404 300.892 354.265 300.978 355.076 300.978 356.494 300.978 357.738 300.859 358.812 300.625 359.884 300.392 360.726 300.166 361.333 299.954ZM395.326 297.427C394.577 299.58 393.535 301.426 392.198 302.96 390.861 304.496 389.25 305.679 387.368 306.51 385.484 307.342 383.428 307.756 381.201 307.756 378.972 307.756 376.926 307.342 375.065 306.51 373.2 305.679 371.59 304.496 370.235 302.96 368.876 301.426 367.823 299.58 367.074 297.427 366.324 295.274 365.95 292.876 365.95 290.234 365.95 287.588 366.324 285.18 367.074 283.006 367.823 280.832 368.867 278.978 370.204 277.442 371.539 275.909 373.14 274.711 375.002 273.86 376.866 273.008 378.931 272.583 381.201 272.583 383.469 272.583 385.544 273.008 387.428 273.86 389.311 274.711 390.921 275.909 392.258 277.442 393.596 278.978 394.627 280.832 395.357 283.006 396.085 285.18 396.451 287.588 396.451 290.234 396.451 292.876 396.076 295.274 395.326 297.427ZM386.881 282.239C385.525 280.277 383.63 279.297 381.201 279.297 378.77 279.297 376.875 280.277 375.52 282.239 374.162 284.199 373.484 286.864 373.484 290.234 373.484 293.559 374.162 296.191 375.52 298.132 376.875 300.071 378.77 301.042 381.201 301.042 383.63 301.042 385.525 300.071 386.881 298.132 388.238 296.191 388.915 293.559 388.915 290.234 388.915 286.864 388.238 284.199 386.881 282.239ZM411.669 298.101C412.905 300.018 414.859 300.978 417.532 300.978 418.747 300.978 419.892 300.775 420.966 300.371 422.036 299.964 422.899 299.527 423.548 299.059L423.548 279.872C423.02 279.745 422.342 279.627 421.511 279.522 420.682 279.414 419.679 279.362 418.503 279.362 415.79 279.362 413.664 280.331 412.124 282.27 410.586 284.211 409.817 286.886 409.817 290.296 409.817 293.581 410.432 296.181 411.669 298.101ZM430.898 323.106 423.548 321.827 423.548 305.774C422.697 306.244 421.684 306.67 420.509 307.054 419.334 307.437 417.978 307.63 416.438 307.63 414.17 307.63 412.165 307.213 410.425 306.382 408.682 305.551 407.203 304.367 405.988 302.833 404.774 301.297 403.851 299.454 403.224 297.3 402.595 295.147 402.282 292.749 402.282 290.106 402.282 287.419 402.658 284.999 403.407 282.847 404.156 280.693 405.229 278.86 406.626 277.349 408.024 275.832 409.714 274.672 411.7 273.86 413.684 273.052 415.932 272.644 418.443 272.644 420.874 272.644 423.193 272.838 425.4 273.222 427.608 273.606 429.44 274.03 430.898 274.503ZM466.32 306.925 458.967 306.925 458.967 279.872C458.481 279.745 457.743 279.638 456.75 279.552 455.757 279.467 454.815 279.424 453.926 279.424 451.453 279.424 449.723 280.193 448.73 281.727 447.737 283.263 447.242 285.821 447.242 289.403L447.242 306.925 439.89 306.925 439.89 288.186C439.89 285.926 440.112 283.847 440.557 281.951 441.003 280.053 441.743 278.425 442.776 277.059 443.809 275.694 445.185 274.627 446.908 273.86 448.629 273.091 450.766 272.708 453.318 272.708 456.03 272.708 458.521 272.912 460.791 273.317 463.057 273.72 464.901 274.119 466.32 274.503ZM474.885 283.166C475.534 281.013 476.515 279.157 477.833 277.602 479.149 276.049 480.809 274.832 482.814 273.954 484.819 273.082 487.177 272.644 489.892 272.644 491.633 272.644 493.324 272.819 494.965 273.158 496.605 273.497 497.829 273.88 498.642 274.308L497.609 280.705C496.718 280.319 495.664 280 494.45 279.745 493.233 279.488 491.997 279.362 490.743 279.362 487.379 279.362 484.991 280.331 483.574 282.27 482.154 284.211 481.446 286.845 481.446 290.17 481.446 293.623 482.195 296.298 483.694 298.196 485.193 300.092 487.379 301.042 490.257 301.042 491.471 301.042 492.616 300.913 493.689 300.659 494.763 300.402 495.725 300.082 496.576 299.699L498.154 306.029C495.481 307.182 492.647 307.756 489.649 307.756 487.218 307.756 485.032 307.308 483.087 306.413 481.144 305.518 479.491 304.281 478.137 302.704 476.778 301.126 475.736 299.261 475.006 297.108 474.278 294.955 473.914 292.642 473.914 290.17 473.914 287.653 474.237 285.318 474.885 283.166ZM511.763 306.925 504.413 306.925 504.413 273.477 511.763 273.477ZM511.215 320.227C510.323 321.079 509.272 321.508 508.056 321.508 506.8 321.508 505.728 321.079 504.836 320.227 503.944 319.374 503.501 318.202 503.501 316.711 503.501 315.26 503.944 314.11 504.836 313.258 505.728 312.403 506.8 311.979 508.056 311.979 509.272 311.979 510.323 312.403 511.215 313.258 512.107 314.11 512.551 315.26 512.551 316.711 512.551 318.202 512.107 319.374 511.215 320.227ZM521.118 273.477 528.468 273.477 528.468 300.466C528.957 300.552 529.704 300.659 530.721 300.785 531.732 300.913 532.704 300.978 533.636 300.978 534.892 300.978 535.953 300.797 536.826 300.434 537.693 300.071 538.385 299.497 538.889 298.708 539.397 297.918 539.761 296.896 539.985 295.638 540.204 294.378 540.319 292.856 540.319 291.065L540.319 273.477 547.67 273.477 547.67 292.28C547.67 294.538 547.456 296.617 547.032 298.515 546.608 300.412 545.876 302.033 544.844 303.376 543.812 304.719 542.422 305.763 540.683 306.51 538.939 307.256 536.771 307.63 534.179 307.63 531.428 307.63 528.917 307.437 526.649 307.054 524.377 306.67 522.538 306.263 521.118 305.839ZM564.559 298.387C565.974 300.242 568.023 301.171 570.694 301.171 571.87 301.171 572.842 301.116 573.614 301.009 574.381 300.902 575.029 300.785 575.558 300.659L575.558 283.325C574.91 282.856 574.068 282.451 573.036 282.111 571.999 281.77 570.898 281.599 569.722 281.599 567.574 281.599 565.825 282.356 564.469 283.87 563.109 285.383 562.431 287.781 562.431 291.065 562.431 294.092 563.139 296.533 564.559 298.387ZM582.908 305.839C581.408 306.263 579.584 306.67 577.441 307.054 575.293 307.437 573.026 307.63 570.634 307.63 568.162 307.63 565.954 307.223 564.011 306.413 562.067 305.603 560.418 304.474 559.062 303.024 557.702 301.574 556.67 299.827 555.962 297.779 555.255 295.733 554.901 293.495 554.901 291.065 554.901 288.465 555.235 286.171 555.903 284.19 556.57 282.208 557.502 280.555 558.698 279.234 559.889 277.911 561.33 276.909 563.009 276.227 564.688 275.544 566.542 275.205 568.571 275.205 570.106 275.205 571.476 275.394 572.672 275.778 573.863 276.161 574.825 276.547 575.558 276.93L575.558 275.653C575.558 273.138 574.93 271.238 573.674 269.957 572.418 268.682 570.31 268.04 567.355 268.04 565.491 268.04 563.757 268.213 562.157 268.552 560.557 268.896 559.132 269.344 557.876 269.899L556.54 263.309C558.036 262.757 559.71 262.309 561.554 261.964 563.393 261.625 565.287 261.456 567.23 261.456 572.538 261.456 576.475 262.692 579.051 265.165 581.622 267.635 582.908 271.538 582.908 276.864ZM609.181 279.681C607.666 280.107 606.361 280.555 605.264 281.024L603.989 274.563C604.676 274.263 605.872 273.87 607.572 273.381 609.276 272.893 611.524 272.644 614.319 272.644 618.491 272.644 621.7 273.465 623.948 275.106 626.195 276.751 627.321 279.169 627.321 282.368 627.321 283.859 627.137 285.138 626.773 286.204 626.409 287.269 625.831 288.219 625.039 289.051 624.252 289.882 623.25 290.627 622.034 291.289 620.818 291.949 619.338 292.621 617.599 293.304 616.542 293.687 615.655 294.06 614.927 294.423 614.195 294.784 613.607 295.147 613.163 295.51 612.715 295.872 612.406 296.265 612.221 296.693 612.037 297.117 611.947 297.608 611.947 298.163 611.947 299.272 612.411 300.092 613.348 300.625 614.275 301.159 615.491 301.426 616.991 301.426 618.65 301.426 620.11 301.266 621.366 300.945 622.622 300.625 623.654 300.273 624.466 299.89L625.802 306.158C624.949 306.498 623.674 306.851 621.974 307.213 620.27 307.575 618.491 307.756 616.627 307.756 612.939 307.756 610.024 306.871 607.876 305.103 605.728 303.333 604.656 300.913 604.656 297.844 604.656 296.265 604.891 294.933 605.354 293.847 605.823 292.759 606.46 291.832 607.268 291.065 608.08 290.296 609.042 289.627 610.153 289.051 611.27 288.474 612.495 287.931 613.831 287.419 616.019 286.566 617.589 285.778 618.541 285.052 619.492 284.328 619.966 283.411 619.966 282.303 619.966 281.108 619.522 280.267 618.63 279.776 617.738 279.286 616.323 279.041 614.379 279.041 612.436 279.041 610.701 279.254 609.181 279.681ZM660.248 306.925 652.897 306.925 652.897 279.872C652.409 279.745 651.671 279.638 650.679 279.552 649.688 279.467 648.746 279.424 647.854 279.424 645.382 279.424 643.653 280.193 642.661 281.727 641.664 283.263 641.171 285.821 641.171 289.403L641.171 306.925 633.82 306.925 633.82 288.186C633.82 285.926 634.039 283.847 634.488 281.951 634.931 280.053 635.674 278.425 636.705 277.059 637.737 275.694 639.112 274.627 640.837 273.86 642.556 273.091 644.694 272.708 647.246 272.708 649.962 272.708 652.448 272.912 654.721 273.317 656.988 273.72 658.832 274.119 660.248 274.503ZM672.368 279.681C670.848 280.107 669.542 280.555 668.451 281.024L667.175 274.563C667.862 274.263 669.059 273.87 670.758 273.381 672.457 272.893 674.71 272.644 677.501 272.644 681.672 272.644 684.886 273.465 687.134 275.106 689.381 276.751 690.503 279.169 690.503 282.368 690.503 283.859 690.323 285.138 689.959 286.204 689.591 287.269 689.018 288.219 688.225 289.051 687.438 289.882 686.436 290.627 685.22 291.289 684.004 291.949 682.524 292.621 680.785 293.304 679.728 293.687 678.841 294.06 678.109 294.423 677.381 294.784 676.793 295.147 676.349 295.51 675.901 295.872 675.587 296.265 675.408 296.693 675.223 297.117 675.133 297.608 675.133 298.163 675.133 299.272 675.597 300.092 676.529 300.625 677.461 301.159 678.677 301.426 680.177 301.426 681.836 301.426 683.296 301.266 684.552 300.945 685.803 300.625 686.84 300.273 687.647 299.89L688.988 306.158C688.135 306.498 686.86 306.851 685.16 307.213 683.456 307.575 681.672 307.756 679.813 307.756 676.125 307.756 673.21 306.871 671.062 305.103 668.914 303.333 667.843 300.913 667.843 297.844 667.843 296.265 668.077 294.933 668.54 293.847 669.004 292.759 669.647 291.832 670.454 291.065 671.266 290.296 672.228 289.627 673.339 289.051 674.456 288.474 675.682 287.931 677.017 287.419 679.205 286.566 680.775 285.778 681.727 285.052 682.679 284.328 683.152 283.411 683.152 282.303 683.152 281.108 682.708 280.267 681.816 279.776 680.924 279.286 679.509 279.041 677.565 279.041 675.617 279.041 673.888 279.254 672.368 279.681ZM697.006 286.781C697.006 284.563 697.186 282.591 697.549 280.865 697.918 279.138 698.541 277.668 699.433 276.451 700.325 275.235 701.531 274.308 703.051 273.669 704.566 273.027 706.46 272.708 708.732 272.708 710.591 272.708 712.211 272.912 713.591 273.317 714.967 273.72 716.083 274.119 716.93 274.503L715.719 280.641C715.111 280.384 714.289 280.107 713.257 279.81 712.226 279.51 711.04 279.362 709.704 279.362 707.761 279.362 706.38 279.936 705.573 281.088 704.761 282.239 704.357 284.158 704.357 286.845L704.357 300.466 715.655 300.466 715.655 306.925 704.357 306.925 704.357 317.03 697.006 315.751ZM729.509 279.969C728.417 280.672 727.869 281.939 727.869 283.775 727.869 284.711 728.068 285.49 728.477 286.109 728.881 286.726 729.419 287.205 730.087 287.548 730.755 287.888 731.502 288.122 732.334 288.25 733.162 288.379 733.984 288.443 734.796 288.443 735.728 288.443 736.575 288.379 737.348 288.25 738.115 288.122 738.703 287.996 739.107 287.867L739.107 279.297C737.931 279.041 736.212 278.914 733.944 278.914 732.08 278.914 730.6 279.264 729.509 279.969ZM727.625 307.244C725.841 306.904 724.485 306.563 723.553 306.222L724.465 299.954C725.357 300.294 726.509 300.594 727.929 300.85 729.344 301.104 730.904 301.233 732.609 301.233 733.864 301.233 734.906 301.061 735.738 300.721 736.565 300.38 737.233 299.899 737.742 299.282 738.245 298.665 738.604 297.949 738.803 297.141 739.007 296.329 739.107 295.476 739.107 294.583L739.107 293.304C738.095 293.559 737.143 293.74 736.251 293.847 735.359 293.952 734.512 294.007 733.7 294.007 731.961 294.007 730.286 293.826 728.686 293.464 727.087 293.1 725.681 292.504 724.465 291.672 723.249 290.841 722.288 289.763 721.58 288.443 720.872 287.121 720.518 285.502 720.518 283.582 720.518 281.577 720.832 279.893 721.46 278.528 722.088 277.164 722.955 276.058 724.072 275.205 725.183 274.349 726.534 273.736 728.113 273.352 729.693 272.967 731.432 272.774 733.336 272.774 736.212 272.774 738.793 272.957 741.081 273.317 743.373 273.681 745.082 273.989 746.219 274.244L746.219 294.519C746.219 296.479 746.004 298.28 745.581 299.923 745.152 301.564 744.444 302.96 743.453 304.112 742.461 305.263 741.135 306.158 739.471 306.798 737.811 307.437 735.768 307.756 733.336 307.756 731.313 307.756 729.409 307.587 727.625 307.244ZM762.619 306.925 755.269 306.925 755.269 273.477 762.619 273.477ZM762.076 320.227C761.184 321.079 760.128 321.508 758.917 321.508 757.661 321.508 756.584 321.079 755.692 320.227 754.805 319.374 754.357 318.202 754.357 316.711 754.357 315.26 754.805 314.11 755.692 313.258 756.584 312.403 757.661 311.979 758.917 311.979 760.128 311.979 761.184 312.403 762.076 313.258 762.963 314.11 763.412 315.26 763.412 316.711 763.412 318.202 762.963 319.374 762.076 320.227ZM771.978 273.477 779.329 273.477 779.329 300.466C779.812 300.552 780.565 300.659 781.577 300.785 782.588 300.913 783.56 300.978 784.492 300.978 785.748 300.978 786.809 300.797 787.681 300.434 788.554 300.071 789.241 299.497 789.75 298.708 790.253 297.918 790.617 296.896 790.841 295.638 791.065 294.378 791.175 292.856 791.175 291.065L791.175 273.477 798.526 273.477 798.526 292.28C798.526 294.538 798.316 296.617 797.888 298.515 797.464 300.412 796.737 302.033 795.7 303.376 794.668 304.719 793.283 305.763 791.539 306.51 789.799 307.256 787.632 307.63 785.04 307.63 782.284 307.63 779.773 307.437 777.505 307.054 775.238 306.67 773.394 306.263 771.978 305.839ZM814.264 279.969C813.167 280.672 812.624 281.939 812.624 283.775 812.624 284.711 812.823 285.49 813.227 286.109 813.636 286.726 814.169 287.205 814.842 287.548 815.509 287.888 816.257 288.122 817.089 288.25 817.917 288.379 818.739 288.443 819.546 288.443 820.478 288.443 821.33 288.379 822.098 288.25 822.87 288.122 823.458 287.996 823.862 287.867L823.862 279.297C822.686 279.041 820.966 278.914 818.699 278.914 816.835 278.914 815.355 279.264 814.264 279.969ZM812.38 307.244C810.596 306.904 809.24 306.563 808.308 306.222L809.22 299.954C810.112 300.294 811.263 300.594 812.684 300.85 814.099 301.104 815.659 301.233 817.358 301.233 818.614 301.233 819.661 301.061 820.488 300.721 821.32 300.38 821.988 299.899 822.496 299.282 823 298.665 823.354 297.949 823.558 297.141 823.762 296.329 823.862 295.476 823.862 294.583L823.862 293.304C822.85 293.559 821.898 293.74 821.006 293.847 820.114 293.952 819.262 294.007 818.455 294.007 816.71 294.007 815.041 293.826 813.441 293.464 811.842 293.1 810.436 292.504 809.22 291.672 808.004 290.841 807.042 289.763 806.335 288.443 805.622 287.121 805.268 285.502 805.268 283.582 805.268 281.577 805.582 279.893 806.21 278.528 806.838 277.164 807.71 276.058 808.827 275.205 809.938 274.349 811.283 273.736 812.863 273.352 814.443 272.967 816.187 272.774 818.091 272.774 820.966 272.774 823.548 272.957 825.835 273.317 828.123 273.681 829.837 273.989 830.968 274.244L830.968 294.519C830.968 296.479 830.759 298.28 830.33 299.923 829.907 301.564 829.199 302.96 828.207 304.112 827.211 305.263 825.885 306.158 824.226 306.798 822.566 307.437 820.518 307.756 818.091 307.756 816.063 307.756 814.159 307.587 812.38 307.244ZM858.737 282.27C857.197 280.331 855.069 279.362 852.358 279.362 851.182 279.362 850.18 279.414 849.348 279.522 848.52 279.627 847.838 279.745 847.314 279.872L847.314 299.123C847.962 299.592 848.824 300.018 849.896 300.402 850.967 300.785 852.113 300.978 853.329 300.978 856.001 300.978 857.954 300.018 859.19 298.101 860.426 296.181 861.044 293.581 861.044 290.296 861.044 286.886 860.276 284.211 858.737 282.27ZM867.637 297.3C867.009 299.454 866.107 301.297 864.931 302.833 863.76 304.367 862.29 305.551 860.526 306.382 858.766 307.213 856.768 307.63 854.545 307.63 853.045 307.63 851.68 307.437 850.444 307.054 849.208 306.67 848.162 306.244 847.314 305.774L847.314 323.106 839.964 321.827 839.964 274.503C841.419 274.03 843.253 273.606 845.46 273.222 847.668 272.838 849.985 272.644 852.417 272.644 854.929 272.644 857.177 273.052 859.16 273.86 861.144 274.672 862.838 275.844 864.233 277.378 865.634 278.914 866.705 280.757 867.453 282.91 868.205 285.064 868.579 287.483 868.579 290.17 868.579 292.769 868.265 295.147 867.637 297.3ZM883.584 306.925 876.234 306.925 876.234 273.477 883.584 273.477ZM883.036 320.227C882.144 321.079 881.093 321.508 879.877 321.508 878.621 321.508 877.549 321.079 876.657 320.227 875.765 319.374 875.322 318.202 875.322 316.711 875.322 315.26 875.765 314.11 876.657 313.258 877.549 312.403 878.621 311.979 879.877 311.979 881.093 311.979 882.144 312.403 883.036 313.258 883.928 314.11 884.372 315.26 884.372 316.711 884.372 318.202 883.928 319.374 883.036 320.227ZM905.029 279.234C904.057 279.362 903.259 279.543 902.631 279.776 902.004 280.01 901.505 280.353 901.141 280.8 900.778 281.248 900.523 281.791 900.384 282.431 900.239 283.07 900.17 283.859 900.17 284.797L900.17 323.106 892.819 321.827 892.819 283.325C892.819 281.663 892.988 280.181 893.337 278.881 893.681 277.582 894.279 276.491 895.126 275.618 895.978 274.746 897.12 274.075 898.56 273.606 899.995 273.138 901.809 272.883 903.997 272.838ZM918.394 306.925 911.044 306.925 911.044 273.477 918.394 273.477ZM917.851 320.227C916.959 321.079 915.908 321.508 914.692 321.508 913.436 321.508 912.359 321.079 911.472 320.227 910.58 319.374 910.132 318.202 910.132 316.711 910.132 315.26 910.58 314.11 911.472 313.258 912.359 312.403 913.436 311.979 914.692 311.979 915.908 311.979 916.959 312.403 917.851 313.258 918.738 314.11 919.187 315.26 919.187 316.711 919.187 318.202 918.738 319.374 917.851 320.227ZM927.39 286.781C927.39 284.563 927.569 282.591 927.933 280.865 928.297 279.138 928.925 277.668 929.817 276.451 930.709 275.235 931.915 274.308 933.435 273.669 934.95 273.027 936.843 272.708 939.116 272.708 940.975 272.708 942.594 272.912 943.975 273.317 945.35 273.72 946.467 274.119 947.314 274.503L946.103 280.641C945.495 280.384 944.672 280.107 943.641 279.81 942.609 279.51 941.423 279.362 940.088 279.362 938.144 279.362 936.764 279.936 935.956 281.088 935.144 282.239 934.74 284.158 934.74 286.845L934.74 300.466 946.038 300.466 946.038 306.925 934.74 306.925 934.74 317.03 927.39 315.751ZM971.499 306.925C970.567 302.917 969.54 298.77 968.414 294.486 967.283 290.201 966.072 286.162 964.781 282.368 964.009 284.199 963.236 286.183 962.464 288.315 961.691 290.446 960.959 292.587 960.271 294.743 959.578 296.896 958.94 299.016 958.347 301.104 957.759 303.193 957.261 305.134 956.852 306.925L949.018 306.925C950.683 300.7 952.586 294.816 954.719 289.274 956.857 283.73 959.085 278.614 961.402 273.925 960.59 271.922 959.643 270.442 958.567 269.478 957.485 268.522 955.99 268.04 954.081 268.04 952.656 268.04 951.211 268.338 949.746 268.935L948.41 262.731C948.978 262.437 949.82 262.159 950.932 261.9 952.048 261.645 953.174 261.517 954.311 261.517 956.01 261.517 957.51 261.721 958.811 262.124 960.107 262.533 961.283 263.181 962.339 264.076 963.391 264.97 964.343 266.101 965.195 267.465 966.047 268.832 966.879 270.471 967.691 272.391 972.017 282.708 975.815 294.219 979.089 306.925L971.499 306.925" fill="#FFFFFF" transform="matrix(1.00347 0 0 -1 -103.08 773.589)"/></g></g></g></svg>